<svg width="17" height="17" viewBox="0 0 17 17" fill="none" xmlns="http://www.w3.org/2000/svg">
<path d="M8.46184 3.64046C8.18884 3.36746 8.06284 3.03146 8.06284 2.63246C8.06284 2.23346 8.18884 1.89746 8.46184 1.62446C8.73484 1.37246 9.07084 1.22546 9.46984 1.22546C9.86884 1.22546 10.2048 1.37246 10.4778 1.62446C10.7298 1.89746 10.8768 2.23346 10.8768 2.63246C10.8768 3.03146 10.7298 3.36746 10.4778 3.64046C10.2048 3.91346 9.86884 4.03946 9.46984 4.03946C9.07084 4.03946 8.73484 3.91346 8.46184 3.64046ZM9.34384 5.59346L11.2128 5.97146L8.10484 16.5765L6.21484 16.1985L9.34384 5.59346Z" fill="black"/>
</svg>
